<?xml version="1.0" standalone="no"?>
<svg xmlns:xlink="http://www.w3.org/1999/xlink" id="wave" style="transform:rotate(180deg); transition: 0.3s" viewBox="0 0 1440 220" version="1.1" xmlns="http://www.w3.org/2000/svg"><defs><linearGradient id="sw-gradient-0" x1="0" x2="0" y1="1" y2="0"><stop stop-color="rgba(56, 34, 15, 1)" offset="0%"/><stop stop-color="rgba(150, 114, 89, 1)" offset="100%"/></linearGradient></defs><path style="transform:translate(0, 0px); opacity:1" fill="url(#sw-gradient-0)" d="M0,88L24,73.3C48,59,96,29,144,33C192,37,240,73,288,99C336,125,384,139,432,139.3C480,139,528,125,576,99C624,73,672,37,720,44C768,51,816,103,864,106.3C912,110,960,66,1008,47.7C1056,29,1104,37,1152,58.7C1200,81,1248,117,1296,128.3C1344,139,1392,125,1440,124.7C1488,125,1536,139,1584,139.3C1632,139,1680,125,1728,117.3C1776,110,1824,110,1872,106.3C1920,103,1968,95,2016,95.3C2064,95,2112,103,2160,110C2208,117,2256,125,2304,135.7C2352,147,2400,161,2448,146.7C2496,132,2544,88,2592,69.7C2640,51,2688,59,2736,84.3C2784,110,2832,154,2880,143C2928,132,2976,66,3024,58.7C3072,51,3120,103,3168,121C3216,139,3264,125,3312,117.3C3360,110,3408,110,3432,110L3456,110L3456,220L3432,220C3408,220,3360,220,3312,220C3264,220,3216,220,3168,220C3120,220,3072,220,3024,220C2976,220,2928,220,2880,220C2832,220,2784,220,2736,220C2688,220,2640,220,2592,220C2544,220,2496,220,2448,220C2400,220,2352,220,2304,220C2256,220,2208,220,2160,220C2112,220,2064,220,2016,220C1968,220,1920,220,1872,220C1824,220,1776,220,1728,220C1680,220,1632,220,1584,220C1536,220,1488,220,1440,220C1392,220,1344,220,1296,220C1248,220,1200,220,1152,220C1104,220,1056,220,1008,220C960,220,912,220,864,220C816,220,768,220,720,220C672,220,624,220,576,220C528,220,480,220,432,220C384,220,336,220,288,220C240,220,192,220,144,220C96,220,48,220,24,220L0,220Z"/></svg>