<?xml version="1.0" standalone="no"?>
<svg xmlns:xlink="http://www.w3.org/1999/xlink" id="wave" style="transform:rotate(0deg); transition: 0.3s" viewBox="0 0 1440 490" version="1.1" xmlns="http://www.w3.org/2000/svg"><defs><linearGradient id="sw-gradient-0" x1="0" x2="0" y1="1" y2="0"><stop stop-color="rgba(102, 66, 41, 1)" offset="0%"/><stop stop-color="rgba(210, 180, 140, 1)" offset="100%"/></linearGradient></defs><path style="transform:translate(0, 0px); opacity:1" fill="url(#sw-gradient-0)" d="M0,147L13.3,187.8C26.7,229,53,310,80,359.3C106.7,408,133,425,160,408.3C186.7,392,213,343,240,269.5C266.7,196,293,98,320,89.8C346.7,82,373,163,400,236.8C426.7,310,453,376,480,359.3C506.7,343,533,245,560,245C586.7,245,613,343,640,318.5C666.7,294,693,147,720,89.8C746.7,33,773,65,800,106.2C826.7,147,853,196,880,245C906.7,294,933,343,960,375.7C986.7,408,1013,425,1040,400.2C1066.7,376,1093,310,1120,277.7C1146.7,245,1173,245,1200,236.8C1226.7,229,1253,212,1280,220.5C1306.7,229,1333,261,1360,245C1386.7,229,1413,163,1440,171.5C1466.7,180,1493,261,1520,294C1546.7,327,1573,310,1600,277.7C1626.7,245,1653,196,1680,155.2C1706.7,114,1733,82,1760,73.5C1786.7,65,1813,82,1840,106.2C1866.7,131,1893,163,1907,179.7L1920,196L1920,490L1906.7,490C1893.3,490,1867,490,1840,490C1813.3,490,1787,490,1760,490C1733.3,490,1707,490,1680,490C1653.3,490,1627,490,1600,490C1573.3,490,1547,490,1520,490C1493.3,490,1467,490,1440,490C1413.3,490,1387,490,1360,490C1333.3,490,1307,490,1280,490C1253.3,490,1227,490,1200,490C1173.3,490,1147,490,1120,490C1093.3,490,1067,490,1040,490C1013.3,490,987,490,960,490C933.3,490,907,490,880,490C853.3,490,827,490,800,490C773.3,490,747,490,720,490C693.3,490,667,490,640,490C613.3,490,587,490,560,490C533.3,490,507,490,480,490C453.3,490,427,490,400,490C373.3,490,347,490,320,490C293.3,490,267,490,240,490C213.3,490,187,490,160,490C133.3,490,107,490,80,490C53.3,490,27,490,13,490L0,490Z"/></svg>