<?xml version="1.0" standalone="no"?>
<svg xmlns:xlink="http://www.w3.org/1999/xlink" id="wave" style="transform:rotate(180deg); transition: 0.3s" viewBox="0 0 1440 140" version="1.1" xmlns="http://www.w3.org/2000/svg"><defs><linearGradient id="sw-gradient-0" x1="0" x2="0" y1="1" y2="0"><stop stop-color="rgba(56, 34, 15, 1)" offset="0%"/><stop stop-color="rgba(150, 114, 89, 1)" offset="100%"/></linearGradient></defs><path style="transform:translate(0, 0px); opacity:1" fill="url(#sw-gradient-0)" d="M0,42L14.1,44.3C28.2,47,56,51,85,49C112.9,47,141,37,169,37.3C197.6,37,226,47,254,60.7C282.4,75,311,93,339,86.3C367.1,79,395,47,424,49C451.8,51,480,89,508,105C536.5,121,565,117,593,102.7C621.2,89,649,65,678,56C705.9,47,734,51,762,63C790.6,75,819,93,847,95.7C875.3,98,904,84,932,67.7C960,51,988,33,1016,32.7C1044.7,33,1073,51,1101,56C1129.4,61,1158,51,1186,60.7C1214.1,70,1242,98,1271,98C1298.8,98,1327,70,1355,51.3C1383.5,33,1412,23,1440,30.3C1468.2,37,1496,61,1525,63C1552.9,65,1581,47,1609,46.7C1637.6,47,1666,65,1694,67.7C1722.4,70,1751,56,1779,42C1807.1,28,1835,14,1864,11.7C1891.8,9,1920,19,1948,30.3C1976.5,42,2005,56,2019,63L2032.9,70L2032.9,140L2018.8,140C2004.7,140,1976,140,1948,140C1920,140,1892,140,1864,140C1835.3,140,1807,140,1779,140C1750.6,140,1722,140,1694,140C1665.9,140,1638,140,1609,140C1581.2,140,1553,140,1525,140C1496.5,140,1468,140,1440,140C1411.8,140,1384,140,1355,140C1327.1,140,1299,140,1271,140C1242.4,140,1214,140,1186,140C1157.6,140,1129,140,1101,140C1072.9,140,1045,140,1016,140C988.2,140,960,140,932,140C903.5,140,875,140,847,140C818.8,140,791,140,762,140C734.1,140,706,140,678,140C649.4,140,621,140,593,140C564.7,140,536,140,508,140C480,140,452,140,424,140C395.3,140,367,140,339,140C310.6,140,282,140,254,140C225.9,140,198,140,169,140C141.2,140,113,140,85,140C56.5,140,28,140,14,140L0,140Z"/></svg>