<?xml version="1.0" standalone="no"?>
<svg xmlns:xlink="http://www.w3.org/1999/xlink" id="wave" style="transform:rotate(180deg); transition: 0.3s" viewBox="0 0 1440 170" version="1.1" xmlns="http://www.w3.org/2000/svg"><defs><linearGradient id="sw-gradient-0" x1="0" x2="0" y1="1" y2="0"><stop stop-color="rgba(56, 34, 15, 1)" offset="0%"/><stop stop-color="rgba(150, 114, 89, 1)" offset="100%"/></linearGradient></defs><path style="transform:translate(0, 0px); opacity:1" fill="url(#sw-gradient-0)" d="M0,68L24,56.7C48,45,96,23,144,25.5C192,28,240,57,288,76.5C336,96,384,108,432,107.7C480,108,528,96,576,76.5C624,57,672,28,720,34C768,40,816,79,864,82.2C912,85,960,51,1008,36.8C1056,23,1104,28,1152,45.3C1200,62,1248,91,1296,99.2C1344,108,1392,96,1440,96.3C1488,96,1536,108,1584,107.7C1632,108,1680,96,1728,90.7C1776,85,1824,85,1872,82.2C1920,79,1968,74,2016,73.7C2064,74,2112,79,2160,85C2208,91,2256,96,2304,104.8C2352,113,2400,125,2448,113.3C2496,102,2544,68,2592,53.8C2640,40,2688,45,2736,65.2C2784,85,2832,119,2880,110.5C2928,102,2976,51,3024,45.3C3072,40,3120,79,3168,93.5C3216,108,3264,96,3312,90.7C3360,85,3408,85,3432,85L3456,85L3456,170L3432,170C3408,170,3360,170,3312,170C3264,170,3216,170,3168,170C3120,170,3072,170,3024,170C2976,170,2928,170,2880,170C2832,170,2784,170,2736,170C2688,170,2640,170,2592,170C2544,170,2496,170,2448,170C2400,170,2352,170,2304,170C2256,170,2208,170,2160,170C2112,170,2064,170,2016,170C1968,170,1920,170,1872,170C1824,170,1776,170,1728,170C1680,170,1632,170,1584,170C1536,170,1488,170,1440,170C1392,170,1344,170,1296,170C1248,170,1200,170,1152,170C1104,170,1056,170,1008,170C960,170,912,170,864,170C816,170,768,170,720,170C672,170,624,170,576,170C528,170,480,170,432,170C384,170,336,170,288,170C240,170,192,170,144,170C96,170,48,170,24,170L0,170Z"/></svg>