<?xml version="1.0" standalone="no"?>
<svg xmlns:xlink="http://www.w3.org/1999/xlink" id="wave" style="transform:rotate(180deg); transition: 0.3s" viewBox="0 0 1440 180" version="1.1" xmlns="http://www.w3.org/2000/svg"><defs><linearGradient id="sw-gradient-0" x1="0" x2="0" y1="1" y2="0"><stop stop-color="rgba(56, 34, 15, 1)" offset="0%"/><stop stop-color="rgba(150, 114, 89, 1)" offset="100%"/></linearGradient></defs><path style="transform:translate(0, 0px); opacity:1" fill="url(#sw-gradient-0)" d="M0,126L18.5,114C36.9,102,74,78,111,75C147.7,72,185,90,222,81C258.5,72,295,36,332,21C369.2,6,406,12,443,27C480,42,517,66,554,75C590.8,84,628,78,665,66C701.5,54,738,36,775,39C812.3,42,849,66,886,75C923.1,84,960,78,997,75C1033.8,72,1071,72,1108,66C1144.6,60,1182,48,1218,54C1255.4,60,1292,84,1329,81C1366.2,78,1403,48,1440,48C1476.9,48,1514,78,1551,93C1587.7,108,1625,108,1662,102C1698.5,96,1735,84,1772,78C1809.2,72,1846,72,1883,66C1920,60,1957,48,1994,60C2030.8,72,2068,108,2105,111C2141.5,114,2178,84,2215,69C2252.3,54,2289,54,2326,60C2363.1,66,2400,78,2437,87C2473.8,96,2511,102,2548,105C2584.6,108,2622,108,2640,108L2658.5,108L2658.5,180L2640,180C2621.5,180,2585,180,2548,180C2510.8,180,2474,180,2437,180C2400,180,2363,180,2326,180C2289.2,180,2252,180,2215,180C2178.5,180,2142,180,2105,180C2067.7,180,2031,180,1994,180C1956.9,180,1920,180,1883,180C1846.2,180,1809,180,1772,180C1735.4,180,1698,180,1662,180C1624.6,180,1588,180,1551,180C1513.8,180,1477,180,1440,180C1403.1,180,1366,180,1329,180C1292.3,180,1255,180,1218,180C1181.5,180,1145,180,1108,180C1070.8,180,1034,180,997,180C960,180,923,180,886,180C849.2,180,812,180,775,180C738.5,180,702,180,665,180C627.7,180,591,180,554,180C516.9,180,480,180,443,180C406.2,180,369,180,332,180C295.4,180,258,180,222,180C184.6,180,148,180,111,180C73.8,180,37,180,18,180L0,180Z"/></svg>