<?xml version="1.0" standalone="no"?>
<svg xmlns:xlink="http://www.w3.org/1999/xlink" id="wave" style="transform:rotate(180deg); transition: 0.3s" viewBox="0 0 1440 130" version="1.1" xmlns="http://www.w3.org/2000/svg"><defs><linearGradient id="sw-gradient-0" x1="0" x2="0" y1="1" y2="0"><stop stop-color="rgba(56, 34, 15, 1)" offset="0%"/><stop stop-color="rgba(150, 114, 89, 1)" offset="100%"/></linearGradient></defs><path style="transform:translate(0, 0px); opacity:1" fill="url(#sw-gradient-0)" d="M0,104L10,91C20,78,40,52,60,36.8C80,22,100,17,120,15.2C140,13,160,13,180,28.2C200,43,220,74,240,80.2C260,87,280,69,300,58.5C320,48,340,43,360,41.2C380,39,400,39,420,47.7C440,56,460,74,480,67.2C500,61,520,30,540,28.2C560,26,580,52,600,56.3C620,61,640,43,660,43.3C680,43,700,61,720,71.5C740,82,760,87,780,88.8C800,91,820,91,840,84.5C860,78,880,65,900,62.8C920,61,940,69,960,69.3C980,69,1000,61,1020,60.7C1040,61,1060,69,1080,73.7C1100,78,1120,78,1140,71.5C1160,65,1180,52,1200,58.5C1220,65,1240,91,1260,101.8C1280,113,1300,108,1320,93.2C1340,78,1360,52,1380,36.8C1400,22,1420,17,1430,15.2L1440,13L1440,130L1430,130C1420,130,1400,130,1380,130C1360,130,1340,130,1320,130C1300,130,1280,130,1260,130C1240,130,1220,130,1200,130C1180,130,1160,130,1140,130C1120,130,1100,130,1080,130C1060,130,1040,130,1020,130C1000,130,980,130,960,130C940,130,920,130,900,130C880,130,860,130,840,130C820,130,800,130,780,130C760,130,740,130,720,130C700,130,680,130,660,130C640,130,620,130,600,130C580,130,560,130,540,130C520,130,500,130,480,130C460,130,440,130,420,130C400,130,380,130,360,130C340,130,320,130,300,130C280,130,260,130,240,130C220,130,200,130,180,130C160,130,140,130,120,130C100,130,80,130,60,130C40,130,20,130,10,130L0,130Z"/></svg>